<mxfile host="app.diagrams.net" modified="2024-02-19T17:34:14.194Z" agent="Mozilla/5.0 (Windows NT 10.0; Win64; x64) AppleWebKit/537.36 (KHTML, like Gecko) Chrome/121.0.0.0 Safari/537.36" etag="1eJWPAqEMJENYV1IDCmI" version="23.1.5" type="device">
  <diagram name="Página-1" id="M6GdpbnAmyd_TsV0fJnO">
    <mxGraphModel dx="1434" dy="746" grid="1" gridSize="10" guides="1" tooltips="1" connect="1" arrows="1" fold="1" page="1" pageScale="1" pageWidth="827" pageHeight="1169" math="0" shadow="0">
      <root>
        <mxCell id="0" />
        <mxCell id="1" parent="0" />
        <mxCell id="eAteCLJqyil0UO8ZNii--7" style="edgeStyle=orthogonalEdgeStyle;rounded=0;orthogonalLoop=1;jettySize=auto;html=1;exitX=0.5;exitY=1;exitDx=0;exitDy=0;entryX=0.5;entryY=0;entryDx=0;entryDy=0;" edge="1" parent="1" source="eAteCLJqyil0UO8ZNii--2" target="eAteCLJqyil0UO8ZNii--3">
          <mxGeometry relative="1" as="geometry" />
        </mxCell>
        <mxCell id="eAteCLJqyil0UO8ZNii--2" value="Pensar fecha y destino" style="rounded=1;whiteSpace=wrap;html=1;" vertex="1" parent="1">
          <mxGeometry x="256" y="20" width="120" height="60" as="geometry" />
        </mxCell>
        <mxCell id="eAteCLJqyil0UO8ZNii--8" style="edgeStyle=orthogonalEdgeStyle;rounded=0;orthogonalLoop=1;jettySize=auto;html=1;exitX=0.5;exitY=1;exitDx=0;exitDy=0;" edge="1" parent="1" source="eAteCLJqyil0UO8ZNii--9" target="eAteCLJqyil0UO8ZNii--4">
          <mxGeometry relative="1" as="geometry" />
        </mxCell>
        <mxCell id="eAteCLJqyil0UO8ZNii--10" style="edgeStyle=orthogonalEdgeStyle;rounded=0;orthogonalLoop=1;jettySize=auto;html=1;exitX=0.5;exitY=1;exitDx=0;exitDy=0;entryX=0.5;entryY=0;entryDx=0;entryDy=0;" edge="1" parent="1" source="eAteCLJqyil0UO8ZNii--3" target="eAteCLJqyil0UO8ZNii--9">
          <mxGeometry relative="1" as="geometry" />
        </mxCell>
        <mxCell id="eAteCLJqyil0UO8ZNii--3" value="Entrar en página de vuelos" style="rounded=1;whiteSpace=wrap;html=1;" vertex="1" parent="1">
          <mxGeometry x="256" y="120" width="120" height="60" as="geometry" />
        </mxCell>
        <mxCell id="eAteCLJqyil0UO8ZNii--13" style="edgeStyle=orthogonalEdgeStyle;rounded=0;orthogonalLoop=1;jettySize=auto;html=1;" edge="1" parent="1" source="eAteCLJqyil0UO8ZNii--4" target="eAteCLJqyil0UO8ZNii--12">
          <mxGeometry relative="1" as="geometry" />
        </mxCell>
        <mxCell id="eAteCLJqyil0UO8ZNii--16" style="edgeStyle=orthogonalEdgeStyle;rounded=0;orthogonalLoop=1;jettySize=auto;html=1;exitX=1;exitY=0.5;exitDx=0;exitDy=0;" edge="1" parent="1" source="eAteCLJqyil0UO8ZNii--4" target="eAteCLJqyil0UO8ZNii--14">
          <mxGeometry relative="1" as="geometry" />
        </mxCell>
        <mxCell id="eAteCLJqyil0UO8ZNii--4" value="Introducir datos del vuelo querido" style="rounded=1;whiteSpace=wrap;html=1;" vertex="1" parent="1">
          <mxGeometry x="256" y="320" width="120" height="60" as="geometry" />
        </mxCell>
        <mxCell id="eAteCLJqyil0UO8ZNii--11" value="" style="edgeStyle=orthogonalEdgeStyle;rounded=0;orthogonalLoop=1;jettySize=auto;html=1;exitX=0.5;exitY=1;exitDx=0;exitDy=0;" edge="1" parent="1" source="eAteCLJqyil0UO8ZNii--3" target="eAteCLJqyil0UO8ZNii--9">
          <mxGeometry relative="1" as="geometry">
            <mxPoint x="316" y="180" as="sourcePoint" />
            <mxPoint x="316" y="430" as="targetPoint" />
          </mxGeometry>
        </mxCell>
        <mxCell id="eAteCLJqyil0UO8ZNii--9" value="Mostrar vuelos" style="rounded=1;whiteSpace=wrap;html=1;" vertex="1" parent="1">
          <mxGeometry x="256" y="220" width="120" height="60" as="geometry" />
        </mxCell>
        <mxCell id="eAteCLJqyil0UO8ZNii--19" style="edgeStyle=orthogonalEdgeStyle;rounded=0;orthogonalLoop=1;jettySize=auto;html=1;exitX=0.5;exitY=1;exitDx=0;exitDy=0;" edge="1" parent="1" source="eAteCLJqyil0UO8ZNii--12" target="eAteCLJqyil0UO8ZNii--18">
          <mxGeometry relative="1" as="geometry" />
        </mxCell>
        <mxCell id="eAteCLJqyil0UO8ZNii--12" value="Mostrar resultados filtrados de vuelos" style="rounded=1;whiteSpace=wrap;html=1;" vertex="1" parent="1">
          <mxGeometry x="256" y="420" width="120" height="60" as="geometry" />
        </mxCell>
        <mxCell id="eAteCLJqyil0UO8ZNii--14" value="Destino&lt;div&gt;Fecha&lt;/div&gt;&lt;div&gt;Num Viajeros&lt;/div&gt;" style="rounded=1;whiteSpace=wrap;html=1;" vertex="1" parent="1">
          <mxGeometry x="436" y="320" width="120" height="60" as="geometry" />
        </mxCell>
        <mxCell id="eAteCLJqyil0UO8ZNii--21" style="edgeStyle=orthogonalEdgeStyle;rounded=0;orthogonalLoop=1;jettySize=auto;html=1;" edge="1" parent="1" source="eAteCLJqyil0UO8ZNii--18" target="eAteCLJqyil0UO8ZNii--20">
          <mxGeometry relative="1" as="geometry" />
        </mxCell>
        <mxCell id="eAteCLJqyil0UO8ZNii--18" value="Comparar opciones y elegir el mejor para sus necesidades" style="rounded=1;whiteSpace=wrap;html=1;" vertex="1" parent="1">
          <mxGeometry x="256" y="520" width="120" height="60" as="geometry" />
        </mxCell>
        <mxCell id="eAteCLJqyil0UO8ZNii--23" style="edgeStyle=orthogonalEdgeStyle;rounded=0;orthogonalLoop=1;jettySize=auto;html=1;" edge="1" parent="1" source="eAteCLJqyil0UO8ZNii--20" target="eAteCLJqyil0UO8ZNii--22">
          <mxGeometry relative="1" as="geometry" />
        </mxCell>
        <mxCell id="eAteCLJqyil0UO8ZNii--20" value="Iniciar proceso de compra haciendo click en comprar." style="rounded=1;whiteSpace=wrap;html=1;" vertex="1" parent="1">
          <mxGeometry x="256" y="620" width="120" height="60" as="geometry" />
        </mxCell>
        <mxCell id="eAteCLJqyil0UO8ZNii--25" style="edgeStyle=orthogonalEdgeStyle;rounded=0;orthogonalLoop=1;jettySize=auto;html=1;" edge="1" parent="1" source="eAteCLJqyil0UO8ZNii--22" target="eAteCLJqyil0UO8ZNii--24">
          <mxGeometry relative="1" as="geometry" />
        </mxCell>
        <mxCell id="eAteCLJqyil0UO8ZNii--27" style="edgeStyle=orthogonalEdgeStyle;rounded=0;orthogonalLoop=1;jettySize=auto;html=1;exitX=0.5;exitY=1;exitDx=0;exitDy=0;" edge="1" parent="1" source="eAteCLJqyil0UO8ZNii--22" target="eAteCLJqyil0UO8ZNii--26">
          <mxGeometry relative="1" as="geometry" />
        </mxCell>
        <mxCell id="eAteCLJqyil0UO8ZNii--22" value="Introducir datos de viajeros" style="rounded=1;whiteSpace=wrap;html=1;" vertex="1" parent="1">
          <mxGeometry x="256" y="720" width="120" height="60" as="geometry" />
        </mxCell>
        <mxCell id="eAteCLJqyil0UO8ZNii--24" value="Nombre y apellidos&lt;br&gt;Edad&lt;br&gt;NIF&lt;br&gt;Mail&lt;br&gt;Telefono&lt;br&gt;Direccion" style="rounded=1;whiteSpace=wrap;html=1;" vertex="1" parent="1">
          <mxGeometry x="421" y="700" width="150" height="100" as="geometry" />
        </mxCell>
        <mxCell id="eAteCLJqyil0UO8ZNii--29" style="edgeStyle=orthogonalEdgeStyle;rounded=0;orthogonalLoop=1;jettySize=auto;html=1;" edge="1" parent="1" source="eAteCLJqyil0UO8ZNii--26" target="eAteCLJqyil0UO8ZNii--28">
          <mxGeometry relative="1" as="geometry" />
        </mxCell>
        <mxCell id="eAteCLJqyil0UO8ZNii--26" value="Comprobar datos correctos" style="rounded=1;whiteSpace=wrap;html=1;" vertex="1" parent="1">
          <mxGeometry x="256" y="820" width="120" height="60" as="geometry" />
        </mxCell>
        <mxCell id="eAteCLJqyil0UO8ZNii--65" style="edgeStyle=orthogonalEdgeStyle;rounded=0;orthogonalLoop=1;jettySize=auto;html=1;" edge="1" parent="1" source="eAteCLJqyil0UO8ZNii--28" target="eAteCLJqyil0UO8ZNii--30">
          <mxGeometry relative="1" as="geometry" />
        </mxCell>
        <mxCell id="eAteCLJqyil0UO8ZNii--28" value="Continuar con el pago haciendo click en el botón pagar" style="rounded=1;whiteSpace=wrap;html=1;" vertex="1" parent="1">
          <mxGeometry x="256" y="920" width="120" height="60" as="geometry" />
        </mxCell>
        <mxCell id="eAteCLJqyil0UO8ZNii--32" style="edgeStyle=orthogonalEdgeStyle;rounded=0;orthogonalLoop=1;jettySize=auto;html=1;" edge="1" parent="1" source="eAteCLJqyil0UO8ZNii--30" target="eAteCLJqyil0UO8ZNii--31">
          <mxGeometry relative="1" as="geometry" />
        </mxCell>
        <mxCell id="eAteCLJqyil0UO8ZNii--35" style="edgeStyle=orthogonalEdgeStyle;rounded=0;orthogonalLoop=1;jettySize=auto;html=1;" edge="1" parent="1" source="eAteCLJqyil0UO8ZNii--30" target="eAteCLJqyil0UO8ZNii--33">
          <mxGeometry relative="1" as="geometry" />
        </mxCell>
        <mxCell id="eAteCLJqyil0UO8ZNii--30" value="Seleccionar método de pago" style="rounded=1;whiteSpace=wrap;html=1;" vertex="1" parent="1">
          <mxGeometry x="256" y="1020" width="120" height="60" as="geometry" />
        </mxCell>
        <mxCell id="eAteCLJqyil0UO8ZNii--31" value="PayPal&lt;br&gt;Tarjeta Bancaria" style="rounded=1;whiteSpace=wrap;html=1;" vertex="1" parent="1">
          <mxGeometry x="436" y="1020" width="120" height="60" as="geometry" />
        </mxCell>
        <mxCell id="eAteCLJqyil0UO8ZNii--37" style="edgeStyle=orthogonalEdgeStyle;rounded=0;orthogonalLoop=1;jettySize=auto;html=1;" edge="1" parent="1" source="eAteCLJqyil0UO8ZNii--33" target="eAteCLJqyil0UO8ZNii--36">
          <mxGeometry relative="1" as="geometry" />
        </mxCell>
        <mxCell id="eAteCLJqyil0UO8ZNii--41" style="edgeStyle=orthogonalEdgeStyle;rounded=0;orthogonalLoop=1;jettySize=auto;html=1;" edge="1" parent="1" source="eAteCLJqyil0UO8ZNii--33" target="eAteCLJqyil0UO8ZNii--38">
          <mxGeometry relative="1" as="geometry" />
        </mxCell>
        <mxCell id="eAteCLJqyil0UO8ZNii--33" value="Rellenar información de pago" style="rounded=1;whiteSpace=wrap;html=1;" vertex="1" parent="1">
          <mxGeometry x="256" y="1120" width="120" height="60" as="geometry" />
        </mxCell>
        <mxCell id="eAteCLJqyil0UO8ZNii--36" value="Número de tarjeta&lt;br&gt;Fecha de caducidad&lt;br&gt;CVV&lt;br&gt;-----------------&lt;br&gt;Iniciar sesión en PayPal" style="rounded=1;whiteSpace=wrap;html=1;" vertex="1" parent="1">
          <mxGeometry x="421" y="1105" width="150" height="90" as="geometry" />
        </mxCell>
        <mxCell id="eAteCLJqyil0UO8ZNii--42" style="edgeStyle=orthogonalEdgeStyle;rounded=0;orthogonalLoop=1;jettySize=auto;html=1;" edge="1" parent="1" source="eAteCLJqyil0UO8ZNii--38" target="eAteCLJqyil0UO8ZNii--40">
          <mxGeometry relative="1" as="geometry" />
        </mxCell>
        <mxCell id="eAteCLJqyil0UO8ZNii--38" value="Rellenar información de pago" style="rounded=1;whiteSpace=wrap;html=1;" vertex="1" parent="1">
          <mxGeometry x="256" y="1220" width="120" height="60" as="geometry" />
        </mxCell>
        <mxCell id="eAteCLJqyil0UO8ZNii--44" style="edgeStyle=orthogonalEdgeStyle;rounded=0;orthogonalLoop=1;jettySize=auto;html=1;" edge="1" parent="1" source="eAteCLJqyil0UO8ZNii--40" target="eAteCLJqyil0UO8ZNii--43">
          <mxGeometry relative="1" as="geometry" />
        </mxCell>
        <mxCell id="eAteCLJqyil0UO8ZNii--40" value="Enviar factura al cliente" style="rounded=1;whiteSpace=wrap;html=1;" vertex="1" parent="1">
          <mxGeometry x="256" y="1320" width="120" height="60" as="geometry" />
        </mxCell>
        <mxCell id="eAteCLJqyil0UO8ZNii--46" style="edgeStyle=orthogonalEdgeStyle;rounded=0;orthogonalLoop=1;jettySize=auto;html=1;" edge="1" parent="1" source="eAteCLJqyil0UO8ZNii--43" target="eAteCLJqyil0UO8ZNii--45">
          <mxGeometry relative="1" as="geometry" />
        </mxCell>
        <mxCell id="eAteCLJqyil0UO8ZNii--43" value="Mostrar resultados de la acción" style="rounded=1;whiteSpace=wrap;html=1;" vertex="1" parent="1">
          <mxGeometry x="256" y="1420" width="120" height="60" as="geometry" />
        </mxCell>
        <mxCell id="eAteCLJqyil0UO8ZNii--45" value="(Exitoso o no)" style="rounded=1;whiteSpace=wrap;html=1;" vertex="1" parent="1">
          <mxGeometry x="436" y="1420" width="120" height="60" as="geometry" />
        </mxCell>
        <mxCell id="eAteCLJqyil0UO8ZNii--48" value="" style="fontColor=#0066CC;verticalAlign=top;verticalLabelPosition=bottom;labelPosition=center;align=center;html=1;outlineConnect=0;fillColor=#CCCCCC;strokeColor=#6881B3;gradientColor=none;gradientDirection=north;strokeWidth=2;shape=mxgraph.networks.pc;" vertex="1" parent="1">
          <mxGeometry x="130" y="320" width="100" height="70" as="geometry" />
        </mxCell>
        <mxCell id="eAteCLJqyil0UO8ZNii--49" value="" style="image;sketch=0;aspect=fixed;html=1;points=[];align=center;fontSize=12;image=img/lib/mscae/Person.svg;" vertex="1" parent="1">
          <mxGeometry x="70" y="330" width="37" height="50" as="geometry" />
        </mxCell>
        <mxCell id="eAteCLJqyil0UO8ZNii--50" value="" style="image;sketch=0;aspect=fixed;html=1;points=[];align=center;fontSize=12;image=img/lib/mscae/Person.svg;" vertex="1" parent="1">
          <mxGeometry x="70" y="30" width="37" height="50" as="geometry" />
        </mxCell>
        <mxCell id="eAteCLJqyil0UO8ZNii--51" value="" style="fontColor=#0066CC;verticalAlign=top;verticalLabelPosition=bottom;labelPosition=center;align=center;html=1;outlineConnect=0;fillColor=#CCCCCC;strokeColor=#6881B3;gradientColor=none;gradientDirection=north;strokeWidth=2;shape=mxgraph.networks.pc;" vertex="1" parent="1">
          <mxGeometry x="130" y="215" width="100" height="70" as="geometry" />
        </mxCell>
        <mxCell id="eAteCLJqyil0UO8ZNii--53" value="" style="fontColor=#0066CC;verticalAlign=top;verticalLabelPosition=bottom;labelPosition=center;align=center;html=1;outlineConnect=0;fillColor=#CCCCCC;strokeColor=#6881B3;gradientColor=none;gradientDirection=north;strokeWidth=2;shape=mxgraph.networks.pc;" vertex="1" parent="1">
          <mxGeometry x="130" y="115" width="100" height="70" as="geometry" />
        </mxCell>
        <mxCell id="eAteCLJqyil0UO8ZNii--54" value="" style="image;sketch=0;aspect=fixed;html=1;points=[];align=center;fontSize=12;image=img/lib/mscae/Person.svg;" vertex="1" parent="1">
          <mxGeometry x="70" y="125" width="37" height="50" as="geometry" />
        </mxCell>
        <mxCell id="eAteCLJqyil0UO8ZNii--55" value="" style="fontColor=#0066CC;verticalAlign=top;verticalLabelPosition=bottom;labelPosition=center;align=center;html=1;outlineConnect=0;fillColor=#CCCCCC;strokeColor=#6881B3;gradientColor=none;gradientDirection=north;strokeWidth=2;shape=mxgraph.networks.pc;" vertex="1" parent="1">
          <mxGeometry x="130" y="415" width="100" height="70" as="geometry" />
        </mxCell>
        <mxCell id="eAteCLJqyil0UO8ZNii--57" value="" style="fontColor=#0066CC;verticalAlign=top;verticalLabelPosition=bottom;labelPosition=center;align=center;html=1;outlineConnect=0;fillColor=#CCCCCC;strokeColor=#6881B3;gradientColor=none;gradientDirection=north;strokeWidth=2;shape=mxgraph.networks.pc;" vertex="1" parent="1">
          <mxGeometry x="130" y="515" width="100" height="70" as="geometry" />
        </mxCell>
        <mxCell id="eAteCLJqyil0UO8ZNii--58" value="" style="image;sketch=0;aspect=fixed;html=1;points=[];align=center;fontSize=12;image=img/lib/mscae/Person.svg;" vertex="1" parent="1">
          <mxGeometry x="70" y="525" width="37" height="50" as="geometry" />
        </mxCell>
        <mxCell id="eAteCLJqyil0UO8ZNii--59" value="" style="fontColor=#0066CC;verticalAlign=top;verticalLabelPosition=bottom;labelPosition=center;align=center;html=1;outlineConnect=0;fillColor=#CCCCCC;strokeColor=#6881B3;gradientColor=none;gradientDirection=north;strokeWidth=2;shape=mxgraph.networks.pc;" vertex="1" parent="1">
          <mxGeometry x="130" y="615" width="100" height="70" as="geometry" />
        </mxCell>
        <mxCell id="eAteCLJqyil0UO8ZNii--60" value="" style="image;sketch=0;aspect=fixed;html=1;points=[];align=center;fontSize=12;image=img/lib/mscae/Person.svg;" vertex="1" parent="1">
          <mxGeometry x="70" y="625" width="37" height="50" as="geometry" />
        </mxCell>
        <mxCell id="eAteCLJqyil0UO8ZNii--61" value="" style="fontColor=#0066CC;verticalAlign=top;verticalLabelPosition=bottom;labelPosition=center;align=center;html=1;outlineConnect=0;fillColor=#CCCCCC;strokeColor=#6881B3;gradientColor=none;gradientDirection=north;strokeWidth=2;shape=mxgraph.networks.pc;" vertex="1" parent="1">
          <mxGeometry x="130" y="715" width="100" height="70" as="geometry" />
        </mxCell>
        <mxCell id="eAteCLJqyil0UO8ZNii--62" value="" style="image;sketch=0;aspect=fixed;html=1;points=[];align=center;fontSize=12;image=img/lib/mscae/Person.svg;" vertex="1" parent="1">
          <mxGeometry x="70" y="725" width="37" height="50" as="geometry" />
        </mxCell>
        <mxCell id="eAteCLJqyil0UO8ZNii--63" value="" style="fontColor=#0066CC;verticalAlign=top;verticalLabelPosition=bottom;labelPosition=center;align=center;html=1;outlineConnect=0;fillColor=#CCCCCC;strokeColor=#6881B3;gradientColor=none;gradientDirection=north;strokeWidth=2;shape=mxgraph.networks.pc;" vertex="1" parent="1">
          <mxGeometry x="130" y="820" width="100" height="70" as="geometry" />
        </mxCell>
        <mxCell id="eAteCLJqyil0UO8ZNii--66" value="" style="fontColor=#0066CC;verticalAlign=top;verticalLabelPosition=bottom;labelPosition=center;align=center;html=1;outlineConnect=0;fillColor=#CCCCCC;strokeColor=#6881B3;gradientColor=none;gradientDirection=north;strokeWidth=2;shape=mxgraph.networks.pc;" vertex="1" parent="1">
          <mxGeometry x="130" y="915" width="100" height="70" as="geometry" />
        </mxCell>
        <mxCell id="eAteCLJqyil0UO8ZNii--67" value="" style="image;sketch=0;aspect=fixed;html=1;points=[];align=center;fontSize=12;image=img/lib/mscae/Person.svg;" vertex="1" parent="1">
          <mxGeometry x="70" y="925" width="37" height="50" as="geometry" />
        </mxCell>
        <mxCell id="eAteCLJqyil0UO8ZNii--68" value="" style="fontColor=#0066CC;verticalAlign=top;verticalLabelPosition=bottom;labelPosition=center;align=center;html=1;outlineConnect=0;fillColor=#CCCCCC;strokeColor=#6881B3;gradientColor=none;gradientDirection=north;strokeWidth=2;shape=mxgraph.networks.pc;" vertex="1" parent="1">
          <mxGeometry x="130" y="1015" width="100" height="70" as="geometry" />
        </mxCell>
        <mxCell id="eAteCLJqyil0UO8ZNii--69" value="" style="image;sketch=0;aspect=fixed;html=1;points=[];align=center;fontSize=12;image=img/lib/mscae/Person.svg;" vertex="1" parent="1">
          <mxGeometry x="70" y="1025" width="37" height="50" as="geometry" />
        </mxCell>
        <mxCell id="eAteCLJqyil0UO8ZNii--70" value="" style="fontColor=#0066CC;verticalAlign=top;verticalLabelPosition=bottom;labelPosition=center;align=center;html=1;outlineConnect=0;fillColor=#CCCCCC;strokeColor=#6881B3;gradientColor=none;gradientDirection=north;strokeWidth=2;shape=mxgraph.networks.pc;" vertex="1" parent="1">
          <mxGeometry x="130" y="1115" width="100" height="70" as="geometry" />
        </mxCell>
        <mxCell id="eAteCLJqyil0UO8ZNii--71" value="" style="image;sketch=0;aspect=fixed;html=1;points=[];align=center;fontSize=12;image=img/lib/mscae/Person.svg;" vertex="1" parent="1">
          <mxGeometry x="70" y="1125" width="37" height="50" as="geometry" />
        </mxCell>
        <mxCell id="eAteCLJqyil0UO8ZNii--72" value="" style="fontColor=#0066CC;verticalAlign=top;verticalLabelPosition=bottom;labelPosition=center;align=center;html=1;outlineConnect=0;fillColor=#CCCCCC;strokeColor=#6881B3;gradientColor=none;gradientDirection=north;strokeWidth=2;shape=mxgraph.networks.pc;" vertex="1" parent="1">
          <mxGeometry x="130" y="1215" width="100" height="70" as="geometry" />
        </mxCell>
        <mxCell id="eAteCLJqyil0UO8ZNii--73" value="" style="image;sketch=0;aspect=fixed;html=1;points=[];align=center;fontSize=12;image=img/lib/mscae/Person.svg;" vertex="1" parent="1">
          <mxGeometry x="70" y="1225" width="37" height="50" as="geometry" />
        </mxCell>
        <mxCell id="eAteCLJqyil0UO8ZNii--74" value="" style="fontColor=#0066CC;verticalAlign=top;verticalLabelPosition=bottom;labelPosition=center;align=center;html=1;outlineConnect=0;fillColor=#CCCCCC;strokeColor=#6881B3;gradientColor=none;gradientDirection=north;strokeWidth=2;shape=mxgraph.networks.pc;" vertex="1" parent="1">
          <mxGeometry x="130" y="1315" width="100" height="70" as="geometry" />
        </mxCell>
        <mxCell id="eAteCLJqyil0UO8ZNii--77" value="" style="fontColor=#0066CC;verticalAlign=top;verticalLabelPosition=bottom;labelPosition=center;align=center;html=1;outlineConnect=0;fillColor=#CCCCCC;strokeColor=#6881B3;gradientColor=none;gradientDirection=north;strokeWidth=2;shape=mxgraph.networks.pc;" vertex="1" parent="1">
          <mxGeometry x="130" y="1410" width="100" height="70" as="geometry" />
        </mxCell>
      </root>
    </mxGraphModel>
  </diagram>
</mxfile>
